<svg xmlns="http://www.w3.org/2000/svg" viewBox="0 0 760 380" width="760" height="380" role="img" aria-label="What the GIL costs, with everything else held fixed">

  <style>
    .bg    { fill: none; }
    .lbl   { fill: #24292f; font: 12px ui-monospace, "SF Mono", Menlo, monospace; }
    .lbl-s { fill: #57606a; font: 10px ui-monospace, "SF Mono", Menlo, monospace; }
    .ttl   { fill: #24292f; font: 600 14px -apple-system, "Segoe UI", sans-serif; }
    .sub   { fill: #57606a; font: 11px -apple-system, "Segoe UI", sans-serif; }
    .axis  { stroke: #d0d7de; stroke-width: 1; }
    .grid  { stroke: #d0d7de; stroke-width: 1; stroke-dasharray: 2 3; opacity: .7; }
    @media (prefers-color-scheme: dark) {
      .lbl   { fill: #e6edf3; }
      .lbl-s { fill: #9198a1; }
      .ttl   { fill: #e6edf3; }
      .sub   { fill: #9198a1; }
      .axis  { stroke: #3d444d; }
      .grid  { stroke: #3d444d; }
    }
  </style>

<text x="16" y="22" class="ttl">What the GIL costs, with everything else held fixed</text>
<text x="16" y="39" class="sub">Same Worker, same phase order, binned reduction, small 1024^2, 100 ticks. Above the dashed line the extra workers are paying for themselves.</text>
<line x1="62" y1="334.0" x2="610" y2="334.0" class="grid"/>
<text x="54" y="338.0" class="lbl-s" text-anchor="end">0</text>
<line x1="62" y1="193.0" x2="610" y2="193.0" class="grid"/>
<text x="54" y="197.0" class="lbl-s" text-anchor="end">2</text>
<line x1="62" y1="52.0" x2="610" y2="52.0" class="grid"/>
<text x="54" y="56.0" class="lbl-s" text-anchor="end">4</text>
<text x="62.0" y="352" class="lbl-s" text-anchor="middle">1</text>
<text x="199.0" y="352" class="lbl-s" text-anchor="middle">2</text>
<text x="336.0" y="352" class="lbl-s" text-anchor="middle">4</text>
<text x="473.0" y="352" class="lbl-s" text-anchor="middle">8</text>
<text x="610.0" y="352" class="lbl-s" text-anchor="middle">16</text>
<line x1="62" y1="263.5" x2="610" y2="263.5" stroke="#8a8a8a" stroke-width="1" stroke-dasharray="5 4"/>
<text x="616" y="267.5" class="lbl-s">1 thread</text>
<polyline points="62.0,263.5 199.0,239.7 336.0,288.2 473.0,313.3 610.0,324.1" fill="none" stroke="#e45756" stroke-width="2.2" stroke-linejoin="round"/>
<circle cx="62.0" cy="263.5" r="3.2" fill="#e45756"/>
<circle cx="199.0" cy="239.7" r="3.2" fill="#e45756"/>
<circle cx="336.0" cy="288.2" r="3.2" fill="#e45756"/>
<circle cx="473.0" cy="313.3" r="3.2" fill="#e45756"/>
<circle cx="610.0" cy="324.1" r="3.2" fill="#e45756"/>
<text x="618.0" y="328.1" class="lbl-s" fill="#e45756">3.12 threads</text>
<polyline points="62.0,263.5 199.0,224.2 336.0,115.9 473.0,103.7 610.0,155.4" fill="none" stroke="#f58518" stroke-width="2.2" stroke-linejoin="round"/>
<circle cx="62.0" cy="263.5" r="3.2" fill="#f58518"/>
<circle cx="199.0" cy="224.2" r="3.2" fill="#f58518"/>
<circle cx="336.0" cy="115.9" r="3.2" fill="#f58518"/>
<circle cx="473.0" cy="103.7" r="3.2" fill="#f58518"/>
<circle cx="610.0" cy="155.4" r="3.2" fill="#f58518"/>
<text x="618.0" y="159.4" class="lbl-s" fill="#f58518">3.12 processes</text>
<polyline points="62.0,263.5 199.0,223.1 336.0,107.9 473.0,62.1 610.0,127.8" fill="none" stroke="#54a24b" stroke-width="2.2" stroke-linejoin="round"/>
<circle cx="62.0" cy="263.5" r="3.2" fill="#54a24b"/>
<circle cx="199.0" cy="223.1" r="3.2" fill="#54a24b"/>
<circle cx="336.0" cy="107.9" r="3.2" fill="#54a24b"/>
<circle cx="473.0" cy="62.1" r="3.2" fill="#54a24b"/>
<circle cx="610.0" cy="127.8" r="3.2" fill="#54a24b"/>
<text x="618.0" y="131.8" class="lbl-s" fill="#54a24b">3.14t threads</text>
<polyline points="62.0,263.5 199.0,222.1 336.0,129.4 473.0,107.8 610.0,162.6" fill="none" stroke="#4c78a8" stroke-width="2.2" stroke-linejoin="round"/>
<circle cx="62.0" cy="263.5" r="3.2" fill="#4c78a8"/>
<circle cx="199.0" cy="222.1" r="3.2" fill="#4c78a8"/>
<circle cx="336.0" cy="129.4" r="3.2" fill="#4c78a8"/>
<circle cx="473.0" cy="107.8" r="3.2" fill="#4c78a8"/>
<circle cx="610.0" cy="162.6" r="3.2" fill="#4c78a8"/>
<text x="618.0" y="166.6" class="lbl-s" fill="#4c78a8">3.14t processes</text>
<line x1="62" y1="52" x2="62" y2="334" class="axis"/>
<line x1="62" y1="334" x2="610" y2="334" class="axis"/>
<text x="336" y="372" class="lbl-s" text-anchor="middle">threads</text>
<text x="14" y="193" class="lbl-s" transform="rotate(-90 14 193)" text-anchor="middle">speedup vs 1 thread</text>
</svg>
