<svg xmlns="http://www.w3.org/2000/svg" viewBox="0 0 760 206" width="760" height="206" role="img" aria-label="Class R: the pixel format decides, not the language">

  <style>
    .bg    { fill: none; }
    .lbl   { fill: #24292f; font: 12px ui-monospace, "SF Mono", Menlo, monospace; }
    .lbl-s { fill: #57606a; font: 10px ui-monospace, "SF Mono", Menlo, monospace; }
    .ttl   { fill: #24292f; font: 600 14px -apple-system, "Segoe UI", sans-serif; }
    .sub   { fill: #57606a; font: 11px -apple-system, "Segoe UI", sans-serif; }
    .axis  { stroke: #d0d7de; stroke-width: 1; }
    .grid  { stroke: #d0d7de; stroke-width: 1; stroke-dasharray: 2 3; opacity: .7; }
    @media (prefers-color-scheme: dark) {
      .lbl   { fill: #e6edf3; }
      .lbl-s { fill: #9198a1; }
      .ttl   { fill: #e6edf3; }
      .sub   { fill: #9198a1; }
      .axis  { stroke: #3d444d; }
      .grid  { stroke: #3d444d; }
    }
  </style>

<text x="16" y="22" class="ttl">Class R: the pixel format decides, not the language</text>
<text x="16" y="39" class="sub">1024x1024, --freeze-sim, RTX 5080 via Mesa D3D12. Log scale.</text>
<line x1="243.4" y1="44" x2="243.4" y2="176" class="grid"/>
<text x="243.4" y="190" class="lbl-s" text-anchor="middle">5</text>
<line x1="331.7" y1="44" x2="331.7" y2="176" class="grid"/>
<text x="331.7" y="190" class="lbl-s" text-anchor="middle">10</text>
<line x1="419.9" y1="44" x2="419.9" y2="176" class="grid"/>
<text x="419.9" y="190" class="lbl-s" text-anchor="middle">20</text>
<line x1="536.5" y1="44" x2="536.5" y2="176" class="grid"/>
<text x="536.5" y="190" class="lbl-s" text-anchor="middle">50</text>
<line x1="624.8" y1="44" x2="624.8" y2="176" class="grid"/>
<text x="624.8" y="190" class="lbl-s" text-anchor="middle">100</text>
<text x="430" y="202" class="lbl-s" text-anchor="middle">ms per frame (log)</text>
<text x="180" y="69" class="lbl" text-anchor="end">python pygame</text>
<rect x="190" y="52" width="82.4" height="24" rx="2" fill="#72b7b2"/>
<text x="280.4" y="69" class="lbl-s">6.28</text>
<text x="180" y="99" class="lbl" text-anchor="end">python raylib</text>
<rect x="190" y="82" width="59.8" height="24" rx="2" fill="#72b7b2"/>
<text x="257.8" y="99" class="lbl-s">5.26</text>
<text x="180" y="129" class="lbl" text-anchor="end">perl sdl2</text>
<rect x="190" y="112" width="462.2" height="24" rx="2" fill="#eeca3b"/>
<text x="660.2" y="129" class="lbl-s">124</text>
<text x="180" y="159" class="lbl" text-anchor="end">perl raylib</text>
<rect x="190" y="142" width="408.7" height="24" rx="2" fill="#eeca3b"/>
<text x="606.7" y="159" class="lbl-s">81</text>
<line x1="190" y1="44" x2="190" y2="176" class="axis"/>
</svg>
