<svg xmlns="http://www.w3.org/2000/svg" viewBox="0 0 760 380" width="760" height="380" role="img" aria-label="Class P: the same design in nine languages">

  <style>
    .bg    { fill: none; }
    .lbl   { fill: #24292f; font: 12px ui-monospace, "SF Mono", Menlo, monospace; }
    .lbl-s { fill: #57606a; font: 10px ui-monospace, "SF Mono", Menlo, monospace; }
    .ttl   { fill: #24292f; font: 600 14px -apple-system, "Segoe UI", sans-serif; }
    .sub   { fill: #57606a; font: 11px -apple-system, "Segoe UI", sans-serif; }
    .axis  { stroke: #d0d7de; stroke-width: 1; }
    .grid  { stroke: #d0d7de; stroke-width: 1; stroke-dasharray: 2 3; opacity: .7; }
    @media (prefers-color-scheme: dark) {
      .lbl   { fill: #e6edf3; }
      .lbl-s { fill: #9198a1; }
      .ttl   { fill: #e6edf3; }
      .sub   { fill: #9198a1; }
      .axis  { stroke: #3d444d; }
      .grid  { stroke: #3d444d; }
    }
  </style>

<text x="16" y="22" class="ttl">Class P: the same design in nine languages</text>
<text x="16" y="39" class="sub">2048x2048, 100 ticks, deferred, binned. Perl at 512x512 -- medium would be hours. 16 physical cores, 32 logical.</text>
<line x1="62" y1="334.0" x2="610" y2="334.0" class="grid"/>
<text x="54" y="338.0" class="lbl-s" text-anchor="end">0</text>
<line x1="62" y1="298.8" x2="610" y2="298.8" class="grid"/>
<text x="54" y="302.8" class="lbl-s" text-anchor="end">4</text>
<line x1="62" y1="263.5" x2="610" y2="263.5" class="grid"/>
<text x="54" y="267.5" class="lbl-s" text-anchor="end">8</text>
<line x1="62" y1="228.2" x2="610" y2="228.2" class="grid"/>
<text x="54" y="232.2" class="lbl-s" text-anchor="end">12</text>
<line x1="62" y1="193.0" x2="610" y2="193.0" class="grid"/>
<text x="54" y="197.0" class="lbl-s" text-anchor="end">16</text>
<line x1="62" y1="157.8" x2="610" y2="157.8" class="grid"/>
<text x="54" y="161.8" class="lbl-s" text-anchor="end">20</text>
<line x1="62" y1="122.5" x2="610" y2="122.5" class="grid"/>
<text x="54" y="126.5" class="lbl-s" text-anchor="end">24</text>
<line x1="62" y1="87.2" x2="610" y2="87.2" class="grid"/>
<text x="54" y="91.2" class="lbl-s" text-anchor="end">28</text>
<line x1="62" y1="52.0" x2="610" y2="52.0" class="grid"/>
<text x="54" y="56.0" class="lbl-s" text-anchor="end">32</text>
<text x="62.0" y="352" class="lbl-s" text-anchor="middle">1</text>
<text x="171.6" y="352" class="lbl-s" text-anchor="middle">2</text>
<text x="281.2" y="352" class="lbl-s" text-anchor="middle">4</text>
<text x="390.8" y="352" class="lbl-s" text-anchor="middle">8</text>
<text x="500.4" y="352" class="lbl-s" text-anchor="middle">16</text>
<text x="610.0" y="352" class="lbl-s" text-anchor="middle">32</text>
<polyline points="62.0,325.2 610.0,52.0" fill="none" stroke="#8a8a8a" stroke-width="1" stroke-dasharray="4 4"/>
<text x="616.0" y="56.0" class="lbl-s">linear</text>
<polyline points="62.0,325.2 171.6,315.2 281.2,296.2 390.8,283.1 500.4,264.1 610.0,255.4" fill="none" stroke="#4c78a8" stroke-width="2.2" stroke-linejoin="round"/>
<circle cx="62.0" cy="325.2" r="3.2" fill="#4c78a8"/>
<circle cx="171.6" cy="315.2" r="3.2" fill="#4c78a8"/>
<circle cx="281.2" cy="296.2" r="3.2" fill="#4c78a8"/>
<circle cx="390.8" cy="283.1" r="3.2" fill="#4c78a8"/>
<circle cx="500.4" cy="264.1" r="3.2" fill="#4c78a8"/>
<circle cx="610.0" cy="255.4" r="3.2" fill="#4c78a8"/>
<text x="618.0" y="259.4" class="lbl-s" fill="#4c78a8">C</text>
<polyline points="62.0,325.2 171.6,315.5 281.2,298.6 390.8,282.5 500.4,266.8 610.0,263.4" fill="none" stroke="#f58518" stroke-width="2.2" stroke-linejoin="round"/>
<circle cx="62.0" cy="325.2" r="3.2" fill="#f58518"/>
<circle cx="171.6" cy="315.5" r="3.2" fill="#f58518"/>
<circle cx="281.2" cy="298.6" r="3.2" fill="#f58518"/>
<circle cx="390.8" cy="282.5" r="3.2" fill="#f58518"/>
<circle cx="500.4" cy="266.8" r="3.2" fill="#f58518"/>
<circle cx="610.0" cy="263.4" r="3.2" fill="#f58518"/>
<text x="618.0" y="267.4" class="lbl-s" fill="#f58518">C++</text>
<polyline points="62.0,325.2 171.6,313.1 281.2,290.4 390.8,266.9 500.4,258.9 610.0,268.7" fill="none" stroke="#b279a2" stroke-width="2.2" stroke-linejoin="round"/>
<circle cx="62.0" cy="325.2" r="3.2" fill="#b279a2"/>
<circle cx="171.6" cy="313.1" r="3.2" fill="#b279a2"/>
<circle cx="281.2" cy="290.4" r="3.2" fill="#b279a2"/>
<circle cx="390.8" cy="266.9" r="3.2" fill="#b279a2"/>
<circle cx="500.4" cy="258.9" r="3.2" fill="#b279a2"/>
<circle cx="610.0" cy="268.7" r="3.2" fill="#b279a2"/>
<text x="618.0" y="272.7" class="lbl-s" fill="#b279a2">Haskell</text>
<polyline points="62.0,325.2 171.6,313.9 281.2,298.8 390.8,279.1 500.4,263.8 610.0,275.9" fill="none" stroke="#54a24b" stroke-width="2.2" stroke-linejoin="round"/>
<circle cx="62.0" cy="325.2" r="3.2" fill="#54a24b"/>
<circle cx="171.6" cy="313.9" r="3.2" fill="#54a24b"/>
<circle cx="281.2" cy="298.8" r="3.2" fill="#54a24b"/>
<circle cx="390.8" cy="279.1" r="3.2" fill="#54a24b"/>
<circle cx="500.4" cy="263.8" r="3.2" fill="#54a24b"/>
<circle cx="610.0" cy="275.9" r="3.2" fill="#54a24b"/>
<text x="618.0" y="279.9" class="lbl-s" fill="#54a24b">Rust</text>
<polyline points="62.0,325.2 171.6,307.6 281.2,286.3 390.8,260.1 500.4,243.0 610.0,254.8" fill="none" stroke="#e45756" stroke-width="2.2" stroke-linejoin="round"/>
<circle cx="62.0" cy="325.2" r="3.2" fill="#e45756"/>
<circle cx="171.6" cy="307.6" r="3.2" fill="#e45756"/>
<circle cx="281.2" cy="286.3" r="3.2" fill="#e45756"/>
<circle cx="390.8" cy="260.1" r="3.2" fill="#e45756"/>
<circle cx="500.4" cy="243.0" r="3.2" fill="#e45756"/>
<circle cx="610.0" cy="254.8" r="3.2" fill="#e45756"/>
<text x="618.0" y="258.8" class="lbl-s" fill="#e45756">TypeScript</text>
<polyline points="62.0,325.2 171.6,321.2 281.2,310.9 390.8,299.2 500.4,295.1 610.0,301.0" fill="none" stroke="#72b7b2" stroke-width="2.2" stroke-linejoin="round"/>
<circle cx="62.0" cy="325.2" r="3.2" fill="#72b7b2"/>
<circle cx="171.6" cy="321.2" r="3.2" fill="#72b7b2"/>
<circle cx="281.2" cy="310.9" r="3.2" fill="#72b7b2"/>
<circle cx="390.8" cy="299.2" r="3.2" fill="#72b7b2"/>
<circle cx="500.4" cy="295.1" r="3.2" fill="#72b7b2"/>
<circle cx="610.0" cy="301.0" r="3.2" fill="#72b7b2"/>
<text x="618.0" y="305.0" class="lbl-s" fill="#72b7b2">Python</text>
<polyline points="62.0,325.2 171.6,317.9 281.2,311.6 390.8,309.1 500.4,313.6 610.0,321.2" fill="none" stroke="#eeca3b" stroke-width="2.2" stroke-linejoin="round"/>
<circle cx="62.0" cy="325.2" r="3.2" fill="#eeca3b"/>
<circle cx="171.6" cy="317.9" r="3.2" fill="#eeca3b"/>
<circle cx="281.2" cy="311.6" r="3.2" fill="#eeca3b"/>
<circle cx="390.8" cy="309.1" r="3.2" fill="#eeca3b"/>
<circle cx="500.4" cy="313.6" r="3.2" fill="#eeca3b"/>
<circle cx="610.0" cy="321.2" r="3.2" fill="#eeca3b"/>
<text x="618.0" y="325.2" class="lbl-s" fill="#eeca3b">Perl</text>
<line x1="62" y1="52" x2="62" y2="334" class="axis"/>
<line x1="62" y1="334" x2="610" y2="334" class="axis"/>
<text x="336" y="372" class="lbl-s" text-anchor="middle">threads / processes</text>
<text x="14" y="193" class="lbl-s" transform="rotate(-90 14 193)" text-anchor="middle">speedup vs 1</text>
</svg>
